<?xml version="1.0" encoding="UTF-8"?>
<!-- Generator: Adobe Illustrator 23.1.1, SVG Export Plug-In . SVG Version: 6.00 Build 0)  -->
<svg xmlns="http://www.w3.org/2000/svg" xmlns:xlink="http://www.w3.org/1999/xlink" id="Ebene_1" x="0px" y="0px" viewBox="0 0 229.6 110.6" style="enable-background:new 0 0 229.6 110.6;" xml:space="preserve">
<style type="text/css">
	.st0{fill:#1A171B;}
	.st1{fill:#009EE0;}
</style>
<g>
	<g>
		<path class="st0" d="M70.2,27.2c0-5.1,1.5-6.8,7.1-6.8h42.1c3.9,0,6.2,1.7,6.2,5.3v7.5c0,2.5-0.8,3.6-4.1,3.6h-6.2    c-2.7,0-3.8-0.7-3.8-2.5v-3.4c0-1.7-0.2-2-2.4-2H86.6c-2.3,0-2.6,0.8-2.6,2.4v5.4c0,2.1,0.5,3.9,1.7,5.4l4.4,6.1    c1.8,2.7,2,4.3,2,5.8c0,0.2,0,0.4,0,0.7v16.1c0,2.4-1.7,3.6-5,3.6H75.3c-2.9,0-5.1-1.7-5.1-4V27.2z"></path>
		<path class="st0" d="M145,22.7v13.8c0,2.7,0.9,3.2,1.7,4.3l5.7,8.1c1.2,1.8,1.2,3.6,1.2,5.5v16.3c0,2.2-1.2,3.6-3.6,3.6h-14.4    c-3.2,0-3.8-1.2-3.8-3.3V22.7c0-1.6,0.9-2.3,3-2.3h7.1C143.8,20.4,145,21.3,145,22.7z"></path>
		<path class="st0" d="M53.7,20.4H15.2V3.7c0-2,0.2-3-3-3H4.6c-2.9,0-3.2,1-3.2,3l0,66.7c0,2.3,2.3,4,5.1,4h49.1    c2.9,0,5.1-1.7,5.1-4V27.2C60.8,21.8,58.1,20.4,53.7,20.4z M23.2,65.4V54.1c0-1.4-0.2-3.1-2-5.8l-4.4-6.1    c-0.9-1.2-1.4-2.5-1.6-3.9v-6.3c0.1-1.8,0.9-2.5,3.7-2.5h24.4c3.3,0,3.3,0.2,3.3,3.2V62c0,2.9-0.3,3.3-4.4,3.3H23.2z"></path>
		<path class="st0" d="M145.6,14c0,1-0.8,1.8-1.8,1.8h-10.7c-1,0-1.8-0.8-1.8-1.8V3.3c0-1,0.8-1.8,1.8-1.8h10.7c1,0,1.8,0.8,1.8,1.8    V14z"></path>
		<g>
			<path class="st1" d="M193.6,54.7l-16.8,17.7c-1.5,1.5-2.5,1.9-5.2,1.9h-10.2c-1.9,0-2.6-2.2-1.2-3.7l22.9-23.4l-22.5-23.1     c-1.5-1.5-0.8-3.7,1.2-3.7h10.5c2.8,0,3.8,0.4,5.2,1.9L194,39.8l16.5-17.4c1.5-1.5,2.5-1.9,5.2-1.9h10.2c1.9,0,2.6,2.2,1.2,3.7     l-22.6,23.1l22.9,23.4c1.5,1.5,0.8,3.7-1.2,3.7h-10.5c-2.8,0-3.8-0.4-5.2-1.9L193.6,54.7z"></path>
		</g>
	</g>
	<g>
		<g>
			<path class="st0" d="M18.2,109.5V97.6c0-2.7-0.4-4.3-2.7-4.3c-2.6,0-3.5,2.6-3.5,5.2v11h-2V97.6c0-2.4-0.2-4.3-2.7-4.3     c-2.6,0-3.6,3-3.6,5.6v10.6h-2V95.3c0-1.1-0.1-2.2-0.1-3.4h2l0,2.6c0.7-1.5,2.1-3,4.2-3c2.8,0,3.6,1.7,3.9,3c1-1.7,2.2-3,4.3-3     c3.7,0,4.3,3,4.3,6v12H18.2z"></path>
			<path class="st0" d="M29.4,109.9c-5.1,0-5.7-3.5-5.7-9c0-5.1,0.6-9.4,6-9.4c5.3,0,5.7,3.9,5.7,9.3     C35.3,106.6,34.3,109.9,29.4,109.9z M33.3,100.2c0-2.9,0.2-7.1-3.6-7.1c-4,0-3.9,4.4-3.9,7.2v2c0,2.7,0.1,5.9,3.7,5.9     c3.4,0,3.8-3.1,3.8-5.9V100.2z"></path>
			<path class="st0" d="M44.9,93.5c-2.7,0-4.1,2-4.1,4.5v11.5h-2V95.1c0-1.1-0.1-2.2-0.1-3.2h1.9l0,2.3c0.9-1.7,2.6-2.7,4.4-2.7     c0.1,0,0.3,0,0.4,0v2C45.3,93.5,45.1,93.5,44.9,93.5z"></path>
			<path class="st0" d="M48.8,101v1c0,3.9,0.6,6.2,3.7,6.2c3,0,3.6-1.9,3.7-4.1h2c-0.1,3.2-1.4,5.7-5.7,5.7c-5,0-5.8-3.7-5.8-8.2     c0-4.7,0-10.2,6-10.2c4.5,0,5.6,3.1,5.6,7.2v2.3H48.8z M56.2,97.3c-0.1-2.1-1-4.1-3.5-4.1c-2.6,0-3.6,1.7-3.8,4     c-0.1,0.8-0.1,1.5-0.1,2.3h7.4C56.2,99,56.2,97.9,56.2,97.3z"></path>
			<path class="st0" d="M72.9,109.6c-3.1,0-3.6-1.4-3.6-4.1v-12h-2.7v-1.6h2.7v-3.4l2-0.9v4.3h3.4v1.6h-3.4v11.8     c0,2.2,0.6,2.5,2.1,2.5c0.4,0,0.9-0.1,1.3-0.1v1.8C74.1,109.6,73.5,109.6,72.9,109.6z"></path>
			<path class="st0" d="M86.3,109.5v-11c0-2.3,0.1-5.2-3.1-5.2c-3,0-4.1,2.8-4.1,5.8v10.4h-2V84.3h2v9.8c1-1.6,2.4-2.6,4.5-2.6     c3.6,0,4.7,2.4,4.7,5.6v12.4H86.3z"></path>
			<path class="st0" d="M100.8,109.5v-2.4c-1.3,1.9-2.5,2.7-4.9,2.7c-3.1,0-4.6-2.2-4.6-5.1c0-5.5,5-5.8,9.4-5.9v-0.7     c0-2.5,0-5-3.2-5c-1.7,0-3.4,0.8-3.4,2.8v0.1h-2V96c0-3.1,2.5-4.5,5.5-4.5c4.1,0,5.1,2,5.1,5.8v6.6c0,1.9,0,3.7,0.1,5.5H100.8z      M100.6,100.4H100c-3,0-6.6,0.4-6.6,4.1c0,1.9,0.8,3.7,3,3.7c3.3,0,4.3-3,4.3-5.6V100.4z"></path>
			<path class="st0" d="M116,109.5v-11c0-2.3,0.1-5.3-3.1-5.3c-3.2,0-4.1,3.1-4.1,5.9v10.3h-2V96.3c0-1.4,0-2.9-0.1-4.4h1.9l0,2.4     c1-1.7,2.6-2.8,4.6-2.8c3.5,0,4.7,2.4,4.7,5.6v12.4H116z"></path>
			<path class="st0" d="M132.7,109.9c-3.6,0-4.9-2-4.9-5.2v-0.4h2v0.4c0,2.3,0.8,3.6,2.9,3.6c2,0,3-1.1,3-3c0-2-0.8-2.9-3-4.1     l-1.4-0.8c-1.8-1-3-2.2-3-4.5c0-2.9,2-4.4,4.7-4.4c3.2,0,4.6,1.7,4.6,4.9v0.2h-2v-0.4c0-1.9-0.8-3-2.8-3c-1.7,0-2.6,1.1-2.6,2.7     c0,1.5,1.1,2.4,2.4,3.2l1.3,0.8c1.9,1,3.7,2.3,3.7,5C137.8,108.1,136,109.9,132.7,109.9z"></path>
			<path class="st0" d="M146,109.9c-5.1,0-5.7-3.5-5.7-9c0-5.1,0.6-9.4,6-9.4c5.3,0,5.7,3.9,5.7,9.3     C151.9,106.6,150.9,109.9,146,109.9z M149.8,100.2c0-2.9,0.2-7.1-3.6-7.1c-4,0-3.9,4.4-3.9,7.2v2c0,2.7,0.1,5.9,3.7,5.9     c3.4,0,3.8-3.1,3.8-5.9V100.2z"></path>
			<path class="st0" d="M158.3,93.5v16h-2v-16h-2.7v-1.6h2.7V90c0-3.1,0.2-5.9,4.4-5.9c0.3,0,0.7,0,1,0.1v1.7c-0.2,0-0.5,0-0.7,0     c-2.1,0-2.7,0.8-2.7,3.2v2.9h3.4v1.6H158.3z"></path>
			<path class="st0" d="M168.3,109.6c-3.1,0-3.6-1.4-3.6-4.1v-12H162v-1.6h2.7v-3.4l2-0.9v4.3h3.4v1.6h-3.4v11.8     c0,2.2,0.6,2.5,2.1,2.5c0.4,0,0.9-0.1,1.3-0.1v1.8C169.5,109.6,168.9,109.6,168.3,109.6z"></path>
			<path class="st0" d="M187.6,109.5h-2.5l-3.7-15l-3.5,15h-2.5l-4.6-17.6h2.1l3.8,15.6l3.6-15.6h2.4l3.8,15.6l3.7-15.6h2     L187.6,109.5z"></path>
			<path class="st0" d="M202.7,109.5v-2.4c-1.3,1.9-2.5,2.7-4.9,2.7c-3.1,0-4.6-2.2-4.6-5.1c0-5.5,5-5.8,9.4-5.9v-0.7     c0-2.5,0-5-3.2-5c-1.7,0-3.4,0.8-3.4,2.8v0.1h-2V96c0-3.1,2.5-4.5,5.5-4.5c4.1,0,5.1,2,5.1,5.8v6.6c0,1.9,0,3.7,0.1,5.5H202.7z      M202.5,100.4h-0.7c-3,0-6.6,0.4-6.6,4.1c0,1.9,0.8,3.7,3,3.7c3.3,0,4.3-3,4.3-5.6V100.4z"></path>
			<path class="st0" d="M214.8,93.5c-2.7,0-4.1,2-4.1,4.5v11.5h-2V95.1c0-1.1-0.1-2.2-0.1-3.2h1.9l0,2.3c0.9-1.7,2.6-2.7,4.4-2.7     c0.1,0,0.3,0,0.4,0v2C215.1,93.5,215,93.5,214.8,93.5z"></path>
			<path class="st0" d="M218.6,101v1c0,3.9,0.6,6.2,3.7,6.2c3,0,3.6-1.9,3.7-4.1h2c-0.1,3.2-1.4,5.7-5.7,5.7c-5,0-5.8-3.7-5.8-8.2     c0-4.7,0-10.2,6-10.2c4.5,0,5.6,3.1,5.6,7.2v2.3H218.6z M226,97.3c-0.1-2.1-1-4.1-3.5-4.1c-2.6,0-3.6,1.7-3.8,4     c-0.1,0.8-0.1,1.5-0.1,2.3h7.4C226.1,99,226.1,97.9,226,97.3z"></path>
		</g>
	</g>
</g>
</svg>
